<svg width="21" height="21" viewBox="0 0 21 21" fill="none" xmlns="http://www.w3.org/2000/svg">
<path fill-rule="evenodd" clip-rule="evenodd" d="M6.61426 10.572C6.6149 9.76695 6.85423 8.98021 7.302 8.31121C7.74978 7.64222 8.38587 7.12103 9.12985 6.81355C9.87384 6.50608 10.6923 6.42612 11.4817 6.58379C12.2711 6.74146 12.9961 7.12969 13.5649 7.69937C14.1337 8.26905 14.5207 8.9946 14.6772 9.78427C14.8336 10.5739 14.7523 11.3923 14.4437 12.1357C14.135 12.8792 13.6128 13.5145 12.9431 13.9612C12.2734 14.4079 11.4863 14.646 10.6813 14.6454C9.60206 14.6437 8.56761 14.2138 7.80508 13.4501C7.04255 12.6863 6.61426 11.6512 6.61426 10.572V10.572ZM14.8864 2.60486H6.47944C5.48076 2.6074 4.5237 3.00525 3.81752 3.71143C3.11134 4.41761 2.71348 5.37466 2.71094 6.37335V14.777C2.71516 15.7752 3.11356 16.7312 3.81938 17.4371C4.52519 18.1429 5.48128 18.5413 6.47944 18.5455H14.8831C15.8816 18.5421 16.8381 18.144 17.5441 17.438C18.2501 16.732 18.6483 15.7754 18.6517 14.777V6.37335C18.65 5.3744 18.2524 4.41686 17.546 3.7105C16.8396 3.00414 15.8821 2.60656 14.8831 2.60486H14.8864ZM6.47944 3.54859H14.8831C15.6323 3.54859 16.3508 3.84619 16.8806 4.37594C17.4103 4.90568 17.7079 5.62417 17.7079 6.37335V14.777C17.7071 15.5259 17.4092 16.2439 16.8796 16.7735C16.3501 17.303 15.6321 17.6009 14.8831 17.6018H6.47944C5.73053 17.6009 5.01253 17.303 4.48297 16.7735C3.9534 16.2439 3.65552 15.5259 3.65467 14.777V6.37335C3.65467 5.62417 3.95228 4.90568 4.48203 4.37594C5.01178 3.84619 5.73027 3.54859 6.47944 3.54859V3.54859ZM15.7209 4.73627C15.557 4.73627 15.3968 4.78492 15.2605 4.87607C15.1242 4.96721 15.0181 5.09674 14.9555 5.24826C14.8929 5.39977 14.8767 5.56645 14.9089 5.72719C14.9411 5.88793 15.0203 6.03548 15.1365 6.15118C15.2526 6.26687 15.4005 6.34549 15.5614 6.37708C15.7222 6.40867 15.8888 6.39181 16.0401 6.32864C16.1914 6.26547 16.3205 6.15882 16.4111 6.0222C16.5017 5.88559 16.5498 5.72516 16.5491 5.56123C16.5491 5.45262 16.5277 5.34508 16.486 5.24479C16.4444 5.14449 16.3833 5.0534 16.3064 4.97676C16.2294 4.90011 16.1381 4.83941 16.0376 4.79814C15.9372 4.75687 15.8296 4.73585 15.7209 4.73627V4.73627ZM15.8172 10.572C15.8172 9.55618 15.516 8.5632 14.9517 7.7186C14.3873 6.874 13.5852 6.21572 12.6467 5.82699C11.7083 5.43826 10.6756 5.33655 9.67932 5.53473C8.68304 5.7329 7.7679 6.22205 7.04963 6.94032C6.33135 7.65859 5.8422 8.57372 5.64403 9.57C5.44586 10.5663 5.54756 11.5989 5.93629 12.5374C6.32502 13.4759 6.98331 14.278 7.82792 14.8423C8.67252 15.4067 9.6655 15.7079 10.6813 15.7079C12.0434 15.7079 13.3498 15.1668 14.313 14.2036C15.2761 13.2404 15.8172 11.9341 15.8172 10.572Z" fill="white"/>
</svg>
