<svg width="86" height="113" viewBox="0 0 86 113" fill="none" xmlns="http://www.w3.org/2000/svg">
<path fill-rule="evenodd" clip-rule="evenodd" d="M23.1055 107.685C23.1353 108.343 23.3209 108.985 23.647 109.558C23.9877 110.128 24.45 110.616 25.0009 110.987C25.6143 111.401 26.2933 111.709 27.0092 111.897C27.8326 112.121 28.6831 112.23 29.5365 112.22C30.3856 112.234 31.2321 112.122 32.0487 111.889C32.7399 111.69 33.3879 111.364 33.9592 110.927C34.4784 110.524 34.9001 110.01 35.1928 109.422C35.4825 108.806 35.6291 108.132 35.6215 107.452C35.6567 106.577 35.3912 105.717 34.8693 105.015C34.3577 104.368 33.7239 103.829 33.004 103.428C32.2295 102.991 31.413 102.633 30.5669 102.359C29.6944 102.074 28.8821 101.765 28.1374 101.449C27.4665 101.171 26.8385 100.799 26.2721 100.344C26.028 100.143 25.8332 99.8881 25.7028 99.5999C25.5724 99.3118 25.5098 98.9975 25.5199 98.6814C25.5171 98.3083 25.6021 97.9399 25.7681 97.6058C25.9492 97.2594 26.2063 96.9585 26.5203 96.7258C26.8919 96.4617 27.3032 96.2585 27.7388 96.124C28.2784 95.9656 28.8388 95.8895 29.4011 95.8984C30.3305 95.8679 31.2499 96.0971 32.0562 96.5603C32.419 96.7805 32.7247 97.0833 32.9482 97.4441C33.1717 97.8049 33.3068 98.2134 33.3424 98.6363H34.9822C34.8927 98.0619 34.6713 97.5161 34.3353 97.0417C33.9912 96.5613 33.5569 96.1525 33.0566 95.8382C32.5202 95.4932 31.9307 95.2391 31.3116 95.086C30.648 94.9159 29.9657 94.83 29.2807 94.8303C28.5683 94.8265 27.859 94.9253 27.1747 95.1237C26.545 95.298 25.9515 95.5832 25.4221 95.9661C24.9142 96.3257 24.5013 96.8032 24.2187 97.3576C23.9118 97.9494 23.7592 98.6091 23.7749 99.2756C23.7504 100.093 24.017 100.893 24.5271 101.532C25.0301 102.126 25.6463 102.615 26.3398 102.969C27.0965 103.366 27.8869 103.696 28.7016 103.954C29.5112 104.209 30.3027 104.518 31.0709 104.879C31.7462 105.188 32.3603 105.616 32.8836 106.143C33.1358 106.408 33.3323 106.721 33.4615 107.063C33.5907 107.406 33.65 107.77 33.6358 108.136C33.6626 108.58 33.5708 109.023 33.3699 109.419C33.169 109.816 32.8661 110.152 32.4925 110.393C31.5799 110.92 30.5374 111.181 29.4838 111.145C28.6555 111.175 27.8295 111.04 27.0543 110.746C26.5271 110.535 26.0522 110.212 25.6628 109.798C25.3656 109.47 25.1447 109.079 25.016 108.655C24.9169 108.332 24.8539 107.999 24.8279 107.662L23.1055 107.685Z" fill="#858A74"/>
<path fill-rule="evenodd" clip-rule="evenodd" d="M42.5641 104.925C43.0069 105.042 43.4566 105.133 43.9105 105.195C44.4358 105.274 44.9664 105.312 45.4975 105.308C46.3795 105.324 47.2574 105.186 48.0925 104.902C48.7908 104.659 49.4329 104.278 49.9804 103.781C50.4718 103.325 50.8591 102.768 51.1162 102.149C51.3746 101.519 51.505 100.844 51.4998 100.163C51.5006 99.5048 51.3887 98.851 51.1689 98.2302C50.9508 97.6248 50.6014 97.0752 50.1459 96.6206C49.6535 96.1454 49.0702 95.7744 48.431 95.53C47.6536 95.2439 46.8296 95.1062 46.0015 95.1238H40.3828V111.935H42.5641V104.925ZM42.5641 96.1768H45.0914C45.7025 96.1646 46.3087 96.2879 46.8665 96.5379C47.3536 96.7584 47.7872 97.0817 48.1376 97.4856C48.4705 97.8749 48.7258 98.3242 48.8898 98.8094C49.0515 99.2765 49.1353 99.7669 49.138 100.261C49.136 100.739 49.0599 101.213 48.9124 101.668C48.7526 102.143 48.4966 102.581 48.1602 102.954C47.804 103.351 47.3684 103.669 46.8815 103.887C46.3012 104.141 45.6721 104.264 45.0387 104.248C44.5817 104.252 44.1247 104.232 43.6698 104.187C43.2816 104.157 42.8995 104.073 42.534 103.939L42.5641 96.1768Z" fill="#858A74"/>
<path fill-rule="evenodd" clip-rule="evenodd" d="M63.8326 106.985L66.1418 111.934H68.466L60.6359 95.1235H59.44L52.332 111.934H53.4377L55.5513 106.985H63.8326ZM63.3287 105.91H56.0026L59.4626 97.8087H59.5603L63.3287 105.91Z" fill="#858A74"/>
<path fill-rule="evenodd" clip-rule="evenodd" d="M2.01443 70.7759H0.367188V87.7071H1.42774V73.8974H1.52552L9.00204 88.0005H9.4383L17.0803 73.9951H17.1781V87.7071H19.3744V70.7759H17.7046L9.87456 85.3152H9.77677L2.01443 70.7759Z" fill="#858A74"/>
<path fill-rule="evenodd" clip-rule="evenodd" d="M47.2881 70.7759H45.2346V77.598H45.1369C44.9944 77.2087 44.7772 76.851 44.4975 76.545C44.2319 76.2685 43.9249 76.035 43.5874 75.853C43.2473 75.6785 42.8856 75.5495 42.5118 75.4694C42.1337 75.3877 41.7478 75.3474 41.361 75.3491C40.5986 75.342 39.8431 75.4931 39.1421 75.7928C38.4733 76.0856 37.8756 76.5192 37.3896 77.064C36.8763 77.6418 36.4849 78.3171 36.2387 79.0497C35.9519 79.8817 35.8119 80.7572 35.8251 81.6371C35.8121 82.5294 35.952 83.4172 36.2387 84.2622C36.4848 85.0016 36.8761 85.6844 37.3896 86.2705C37.8732 86.8198 38.4714 87.2563 39.1421 87.5492C39.842 87.8524 40.5983 88.0036 41.361 87.993C43.264 87.993 44.5276 87.2408 45.1218 85.7365H45.2196V87.6996H47.2881V70.7759ZM45.2346 82.8707C45.2357 83.3837 45.1466 83.8929 44.9714 84.375C44.805 84.8238 44.5634 85.241 44.2568 85.6086C43.9599 85.9512 43.5965 86.2301 43.1887 86.4284C42.7796 86.6305 42.3287 86.7336 41.8725 86.7293C41.3749 86.7335 40.8815 86.6389 40.4208 86.451C39.9576 86.2611 39.5491 85.9586 39.2324 85.571C38.8632 85.1051 38.5897 84.5709 38.4276 83.999C38.2111 83.2437 38.1097 82.4602 38.1267 81.6748C38.1087 80.8819 38.2101 80.0907 38.4276 79.328C38.5933 78.7523 38.872 78.2153 39.2474 77.7485C39.5671 77.357 39.9777 77.0498 40.4434 76.8534C40.8963 76.6659 41.3823 76.5713 41.8725 76.5751C42.3141 76.5714 42.751 76.6665 43.1511 76.8534C43.5628 77.0453 43.9274 77.3252 44.2192 77.6732C44.5463 78.0637 44.801 78.5095 44.9714 78.9895C45.1664 79.558 45.2606 80.1562 45.2497 80.7571L45.2346 82.8707Z" fill="#858A74"/>
<path fill-rule="evenodd" clip-rule="evenodd" d="M63.593 86.7444C63.0234 86.748 62.4569 86.6591 61.9157 86.4811C61.378 86.3031 60.8853 86.0105 60.4715 85.6237C60.0251 85.1808 59.6833 84.6437 59.4712 84.0517C59.2024 83.2784 59.075 82.4631 59.0951 81.6447C59.0712 80.791 59.2117 79.9407 59.5088 79.14C59.7341 78.5276 60.0851 77.969 60.5392 77.5003C60.9201 77.1035 61.3854 76.7976 61.9007 76.6052C62.3565 76.4274 62.8406 76.3332 63.3298 76.3269C64.0195 76.3083 64.697 76.5113 65.2628 76.9061C65.7759 77.2438 66.1602 77.7446 66.3535 78.3277H68.0233C67.8907 77.7957 67.6328 77.3031 67.2711 76.891C66.9187 76.5164 66.5039 76.2059 66.0451 75.9734C65.5729 75.733 65.0649 75.5704 64.5408 75.492C64.0441 75.4039 63.5408 75.3586 63.0364 75.3566C62.1169 75.338 61.2033 75.5069 60.3512 75.853C59.6146 76.1609 58.949 76.6166 58.3956 77.1919C57.859 77.7603 57.4511 78.4376 57.1996 79.1776C56.6552 80.7821 56.6685 82.5234 57.2372 84.1194C57.5031 84.8758 57.9242 85.5683 58.4734 86.1525C59.0226 86.7366 59.6878 87.1996 60.4264 87.5116C61.2377 87.8533 62.1112 88.0224 62.9913 88.008C63.9486 88.0274 64.8993 87.8455 65.7818 87.474C66.4997 87.1661 67.1788 86.7748 67.8052 86.3082L67.0981 85.3905C66.597 85.8206 66.0309 86.1684 65.4208 86.421C64.8373 86.6427 64.2172 86.7525 63.593 86.7444Z" fill="#858A74"/>
<path fill-rule="evenodd" clip-rule="evenodd" d="M75.5919 75.3494C76.5306 75.3022 77.4675 75.4721 78.3298 75.8458C78.9216 76.1235 79.4148 76.5747 79.7439 77.1395C80.054 77.7039 80.2314 78.3316 80.2629 78.9748C80.3155 79.6668 80.3381 80.3813 80.3381 81.1034V87.7074H78.3825V86.519C77.8667 86.9977 77.2571 87.364 76.5923 87.5946C75.8951 87.8575 75.1562 87.9926 74.411 87.9932C73.7805 88.0053 73.1547 87.8822 72.5758 87.6322C72.0728 87.4123 71.6199 87.0924 71.2444 86.692C70.8964 86.3115 70.6256 85.867 70.4471 85.3832C70.2671 84.9024 70.1779 84.3923 70.1839 83.8789C70.1838 83.3493 70.2807 82.8242 70.4697 82.3294C70.6655 81.8124 70.9621 81.3394 71.3422 80.9379C71.749 80.5147 72.2344 80.1749 72.7713 79.9376C73.3806 79.6721 74.0399 79.5412 74.7044 79.554C75.4157 79.549 76.1202 79.6925 76.7729 79.9752C77.4003 80.2341 77.9534 80.6451 78.3825 81.1711V80.1331C78.4483 79.1118 78.2406 78.0914 77.7808 77.1771C77.537 76.8376 77.207 76.5693 76.8248 76.4001C76.4426 76.2308 76.0222 76.1667 75.607 76.2143C75.2046 76.2064 74.8035 76.2623 74.4186 76.3798C74.0915 76.4874 73.7841 76.6474 73.5084 76.8537C73.2245 77.0688 72.9714 77.3219 72.7563 77.6058C72.5133 77.9273 72.2873 78.2612 72.0793 78.6062L70.8383 77.3501C71.0639 77.1094 71.2971 76.8687 71.5453 76.5979C71.8189 76.3343 72.1308 76.1137 72.4705 75.9436C72.8797 75.7311 73.3145 75.5719 73.7642 75.4697C74.3594 75.3397 74.9677 75.2791 75.5769 75.2892M78.3674 82.8559C78.2847 82.6679 78.1644 82.4423 78.0139 82.179C77.8487 81.904 77.649 81.6512 77.4197 81.4268C77.1641 81.172 76.8664 80.9634 76.5397 80.8101C76.1623 80.6292 75.747 80.5415 75.3287 80.5543C74.8844 80.5482 74.4445 80.6434 74.0425 80.8326C73.6667 81.0144 73.3316 81.2703 73.0572 81.5848C72.7872 81.8939 72.5779 82.2512 72.4404 82.6378C72.2967 83.0411 72.2229 83.4659 72.2222 83.8939C72.2098 84.3582 72.3051 84.819 72.5005 85.2403C72.6756 85.6036 72.9181 85.9303 73.2151 86.2031C73.4952 86.4645 73.8252 86.6666 74.1854 86.7973C74.5128 86.9203 74.8587 86.9864 75.2083 86.9929C75.5269 86.9894 75.8424 86.9309 76.141 86.8199C76.4607 86.7039 76.764 86.5471 77.0436 86.3535C77.3225 86.1468 77.5751 85.9069 77.7958 85.639C78.0228 85.367 78.2125 85.066 78.3599 84.7439L78.3674 82.8559Z" fill="#858A74"/>
<path d="M85.8288 70.7759H83.7754V87.7071H85.8288V70.7759Z" fill="#858A74"/>
<path fill-rule="evenodd" clip-rule="evenodd" d="M33.6579 82.2317V81.7203C33.6761 80.765 33.5207 79.8144 33.1991 78.9147C32.9268 78.1814 32.5011 77.5147 31.9505 76.959C31.4342 76.4428 30.81 76.0473 30.1228 75.8007C29.4208 75.5368 28.6763 75.4042 27.9264 75.4096C27.1542 75.4039 26.3881 75.5469 25.6699 75.8308C24.9838 76.1105 24.3637 76.5307 23.8497 77.0644C23.3204 77.631 22.911 78.2987 22.6462 79.0275C22.3431 79.8585 22.1952 80.7381 22.21 81.6225C22.2064 82.4249 22.3334 83.2226 22.5861 83.9843C22.8251 84.7371 23.2112 85.4351 23.7218 86.0377C24.248 86.6616 24.909 87.158 25.6549 87.4894C26.5268 87.871 27.4713 88.0584 28.4229 88.0384C29.4025 88.046 30.374 87.8594 31.2811 87.4894C32.1331 87.1326 32.9016 86.6023 33.5376 85.9324L32.7854 85.1802C32.447 85.4661 32.1311 85.7368 31.8302 85.9775C31.5516 86.2097 31.249 86.4114 30.9276 86.5792C30.6251 86.7418 30.3045 86.8681 29.9723 86.9553C29.6165 87.0494 29.2497 87.0949 28.8817 87.0907C28.396 87.0861 27.913 87.0178 27.4451 86.8876C26.9252 86.7414 26.4429 86.4848 26.031 86.1355C25.5578 85.7251 25.1869 85.21 24.9479 84.6311C24.6326 83.8665 24.4839 83.0434 24.5116 82.2167L33.6579 82.2317ZM24.489 81.2614C24.4863 80.6311 24.557 80.0026 24.6997 79.3885C24.8146 78.8204 25.0258 78.276 25.324 77.7789C25.5866 77.3263 25.9526 76.9423 26.392 76.6582C26.8402 76.37 27.3636 76.2208 27.8964 76.2294C28.4168 76.2101 28.9336 76.3236 29.3981 76.5591C29.8626 76.7947 30.2595 77.1445 30.5515 77.5758C31.2405 78.677 31.5716 79.9645 31.4992 81.2614H24.489Z" fill="#858A74"/>
<path fill-rule="evenodd" clip-rule="evenodd" d="M51.3328 87.7072H53.3937V75.6124H51.3328V87.7072ZM51.047 71.7914C51.0451 71.9624 51.0781 72.132 51.1441 72.2898C51.21 72.4476 51.3075 72.5903 51.4306 72.7091C51.5475 72.8445 51.691 72.9544 51.8523 73.0319C52.0136 73.1093 52.1891 73.1527 52.3679 73.1593C52.5467 73.1659 52.725 73.1355 52.8915 73.07C53.058 73.0046 53.2093 72.9055 53.3358 72.779C53.4623 72.6525 53.5614 72.5013 53.6268 72.3347C53.6922 72.1682 53.7226 71.99 53.7161 71.8112C53.7095 71.6324 53.6661 71.4568 53.5887 71.2955C53.5112 71.1343 53.4013 70.9907 53.2658 70.8738C53.0839 70.6928 52.8525 70.5697 52.6007 70.5198C52.3489 70.47 52.0881 70.4958 51.8509 70.5939C51.6137 70.692 51.4109 70.858 51.2678 71.0711C51.1248 71.2842 51.0479 71.5348 51.047 71.7914Z" fill="#858A74"/>
<path fill-rule="evenodd" clip-rule="evenodd" d="M13.6588 50.1366H6.60352C7.67911 50.1366 8.56667 48.9181 8.86001 48.4593C15.9981 33.7695 23.1511 19.3731 29.5972 4.48023C29.6799 4.28466 29.7702 4.09662 29.8454 3.89354C30.5299 2.17108 29.2061 1.19327 26.6938 0.884879C26.3779 0.847271 32.3576 0.884879 32.3576 0.884879L42.023 21.0655L39.616 26.1576C36.9458 19.6138 33.877 14.1832 30.9285 7.49641C27.4084 15.2362 23.1662 24.044 19.4204 32.6112H36.5322L35.5243 34.7248L18.7058 34.642C16.8029 39.0798 14.1929 44.0592 12.2071 48.4969C11.7859 49.4597 12.7186 50.1366 13.6588 50.1366Z" fill="#858A74"/>
<path fill-rule="evenodd" clip-rule="evenodd" d="M55.1694 18.7635C59.8028 28.2559 69.8442 48.6621 74.3948 59.0871C75.3049 61.1706 77.0725 63.5324 79.5922 63.5324H66.2187C65.5944 63.5324 67.4072 63.4422 67.9111 63.2692C68.2851 63.1742 68.6332 62.997 68.9301 62.7505C69.227 62.504 69.4652 62.1944 69.6274 61.8442C69.7895 61.494 69.8714 61.1121 69.8673 60.7262C69.8632 60.3404 69.7731 59.9603 69.6035 59.6136C68.0992 55.5595 65.2334 51.1067 63.8344 47.4662L42.6233 47.3609L34.0938 63.5324L41.7057 47.3458L42.6459 45.315H62.9543L52.7775 23.7504L55.1694 18.7635Z" fill="#858A74"/>
<path fill-rule="evenodd" clip-rule="evenodd" d="M49.6652 41.8779C48.7886 41.3454 47.94 40.7679 47.1229 40.1479C46.0323 41.8704 43.3621 42.4044 41.6998 42.096C39.7667 41.7199 38.6009 40.178 39.3906 38.3352C40.052 37.1005 40.8851 35.966 41.8653 34.9655C40.6994 33.3784 39.7366 31.5657 40.2105 30.2494C40.7671 28.6774 42.0307 27.3611 44.3399 27.9328C46.4459 28.4668 46.9198 30.5954 45.8442 32.2953C45.1408 33.2311 44.3663 34.1112 43.5276 34.9279C44.6388 36.1743 45.8681 37.3104 47.1981 38.3202L49.6502 35.2438L47.8751 38.8467C48.2211 39.1626 49.605 40.193 49.605 40.2231L49.6652 41.8779ZM46.446 39.6214C45.0172 38.519 43.7019 37.2768 42.5197 35.9132C41.3914 37.0941 40.6768 37.8839 40.4136 38.6511C39.9096 40.1103 40.8423 40.9527 42.0157 41.2085C42.8287 41.3703 43.6703 41.3081 44.4506 41.0285C45.231 40.749 45.9207 40.2626 46.446 39.6214ZM42.8356 34.1306C43.2944 33.6191 43.9713 33.1302 44.4527 32.4909C44.9235 31.9233 45.2419 31.245 45.3779 30.5202C45.769 27.5115 38.0819 27.7898 42.8356 34.1306Z" fill="#858A74"/>
</svg>
