<svg width="60" height="77" viewBox="0 0 60 77" fill="none" xmlns="http://www.w3.org/2000/svg">
<path fill-rule="evenodd" clip-rule="evenodd" d="M16.4531 73.2195C16.4735 73.6673 16.5997 74.104 16.8215 74.4936C17.0533 74.8815 17.3678 75.2135 17.7426 75.4658C18.1598 75.7477 18.6217 75.957 19.1088 76.085C19.6689 76.2375 20.2476 76.3115 20.8281 76.305C21.4057 76.3142 21.9816 76.2384 22.5371 76.0798C23.0074 75.9443 23.4481 75.7222 23.8368 75.4249C24.19 75.1512 24.4769 74.8014 24.676 74.4015C24.8731 73.9823 24.9728 73.524 24.9677 73.0609C24.9916 72.466 24.811 71.8809 24.456 71.403C24.1079 70.9633 23.6767 70.5964 23.187 70.3233C22.6601 70.0261 22.1047 69.7827 21.5291 69.5967C20.9355 69.4023 20.3829 69.1925 19.8763 68.9776C19.4199 68.788 18.9927 68.5348 18.6073 68.2254C18.4413 68.0885 18.3088 67.9155 18.2201 67.7194C18.1314 67.5234 18.0888 67.3096 18.0956 67.0945C18.0937 66.8408 18.1516 66.5901 18.2645 66.3628C18.3877 66.1272 18.5626 65.9225 18.7762 65.7641C19.029 65.5845 19.3088 65.4463 19.6051 65.3548C19.9722 65.247 20.3535 65.1953 20.736 65.2013C21.3682 65.1806 21.9937 65.3365 22.5422 65.6516C22.7891 65.8014 22.997 66.0074 23.149 66.2528C23.3011 66.4982 23.393 66.7761 23.4172 67.0638H24.5327C24.4719 66.6731 24.3212 66.3018 24.0927 65.9791C23.8586 65.6523 23.5631 65.3742 23.2228 65.1603C22.8579 64.9257 22.4568 64.7528 22.0357 64.6487C21.5843 64.5329 21.1201 64.4745 20.6541 64.4747C20.1694 64.4721 19.6869 64.5393 19.2214 64.6742C18.793 64.7928 18.3893 64.9869 18.0291 65.2473C17.6836 65.492 17.4027 65.8168 17.2104 66.194C17.0017 66.5966 16.8978 67.0454 16.9085 67.4988C16.8919 68.0549 17.0732 68.5989 17.4202 69.0338C17.7624 69.4381 18.1816 69.7703 18.6534 70.0112C19.1682 70.2814 19.7059 70.5057 20.2601 70.6815C20.8109 70.855 21.3494 71.0652 21.8719 71.3109C22.3313 71.5209 22.7491 71.8122 23.1051 72.1705C23.2767 72.3509 23.4104 72.5638 23.4982 72.7967C23.5861 73.0296 23.6265 73.2778 23.6168 73.5265C23.635 73.8284 23.5726 74.1297 23.4359 74.3994C23.2993 74.6692 23.0932 74.8977 22.839 75.0616C22.2182 75.4205 21.509 75.5978 20.7923 75.5733C20.2288 75.5939 19.6669 75.5017 19.1395 75.3021C18.7808 75.1586 18.4578 74.9385 18.1929 74.6573C17.9907 74.4336 17.8404 74.1681 17.7528 73.8796C17.6854 73.6598 17.6425 73.4333 17.6249 73.2041L16.4531 73.2195Z" fill="#EBE7DE"/>
<path fill-rule="evenodd" clip-rule="evenodd" d="M29.6909 71.3417C29.9922 71.4218 30.2981 71.4833 30.6069 71.5259C30.9642 71.5793 31.3252 71.605 31.6865 71.6026C32.2865 71.6131 32.8838 71.5196 33.4519 71.3263C33.9269 71.1611 34.3637 70.9018 34.7362 70.5639C35.0705 70.2535 35.334 69.8748 35.5089 69.4536C35.6846 69.025 35.7733 68.5658 35.7698 68.1027C35.7704 67.6547 35.6942 67.2099 35.5447 66.7876C35.3963 66.3758 35.1587 66.0018 34.8488 65.6926C34.5138 65.3693 34.117 65.1169 33.6821 64.9507C33.1533 64.7561 32.5927 64.6624 32.0294 64.6744H28.207V76.1106H29.6909V71.3417ZM29.6909 65.3907H31.4102C31.8259 65.3824 32.2384 65.4663 32.6178 65.6363C32.9492 65.7864 33.2442 66.0063 33.4826 66.2811C33.709 66.5459 33.8827 66.8516 33.9943 67.1816C34.1042 67.4994 34.1613 67.833 34.1631 68.1692C34.1617 68.4942 34.11 68.817 34.0096 69.1261C33.9009 69.4498 33.7267 69.7476 33.4979 70.0011C33.2556 70.2712 32.9592 70.4874 32.628 70.6356C32.2333 70.8086 31.8053 70.8924 31.3744 70.8812C31.0635 70.8841 30.7526 70.8705 30.4431 70.8402C30.1791 70.8194 29.9191 70.7626 29.6705 70.6714L29.6909 65.3907Z" fill="#EBE7DE"/>
<path fill-rule="evenodd" clip-rule="evenodd" d="M44.1597 72.7437L45.7306 76.1106H47.3117L41.985 64.6743H41.1714L36.3359 76.1106H37.0881L38.526 72.7437H44.1597ZM43.8169 72.012H38.833L41.1868 66.501H41.2533L43.8169 72.012Z" fill="#EBE7DE"/>
<path fill-rule="evenodd" clip-rule="evenodd" d="M2.10498 48.1108H0.984375V59.629H1.70586V50.2344H1.77238L6.85859 59.8286H7.15537L12.3541 50.3009H12.4207V59.629H13.9148V48.1108H12.7789L7.45215 58.0018H7.38563L2.10498 48.1108Z" fill="#EBE7DE"/>
<path fill-rule="evenodd" clip-rule="evenodd" d="M32.9042 48.1108H31.5073V52.7519H31.4408C31.3439 52.487 31.1961 52.2437 31.0058 52.0355C30.8251 51.8474 30.6163 51.6886 30.3867 51.5648C30.1553 51.446 29.9093 51.3583 29.655 51.3038C29.3977 51.2482 29.1352 51.2208 28.8721 51.2219C28.3535 51.2171 27.8395 51.3199 27.3626 51.5238C26.9076 51.723 26.501 52.018 26.1704 52.3886C25.8212 52.7816 25.5549 53.2411 25.3875 53.7394C25.1923 54.3054 25.0971 54.901 25.106 55.4997C25.0972 56.1066 25.1924 56.7106 25.3875 57.2855C25.5549 57.7885 25.821 58.2529 26.1704 58.6517C26.4993 59.0254 26.9063 59.3223 27.3626 59.5216C27.8388 59.7278 28.3532 59.8307 28.8721 59.8235C30.1667 59.8235 31.0263 59.3118 31.4305 58.2884H31.4971V59.6239H32.9042V48.1108ZM31.5073 56.3388C31.508 56.6878 31.4474 57.0342 31.3282 57.3622C31.215 57.6675 31.0506 57.9513 30.8421 58.2014C30.6401 58.4345 30.3929 58.6242 30.1155 58.7591C29.8372 58.8966 29.5304 58.9667 29.22 58.9638C28.8816 58.9667 28.5459 58.9023 28.2325 58.7745C27.9174 58.6453 27.6395 58.4395 27.424 58.1758C27.1729 57.8589 26.9868 57.4954 26.8765 57.1064C26.7293 56.5926 26.6603 56.0596 26.6718 55.5253C26.6596 54.9858 26.7286 54.4477 26.8765 53.9288C26.9892 53.5371 27.1788 53.1718 27.4342 52.8542C27.6517 52.5879 27.931 52.3789 28.2478 52.2453C28.556 52.1178 28.8866 52.0534 29.22 52.056C29.5205 52.0535 29.8177 52.1182 30.0899 52.2453C30.37 52.3759 30.618 52.5663 30.8165 52.8031C31.039 53.0687 31.2123 53.372 31.3282 53.6985C31.4609 54.0853 31.5249 54.4922 31.5175 54.901L31.5073 56.3388Z" fill="#EBE7DE"/>
<path fill-rule="evenodd" clip-rule="evenodd" d="M43.9957 58.974C43.6082 58.9765 43.2228 58.916 42.8546 58.7949C42.4888 58.6738 42.1537 58.4748 41.8722 58.2116C41.5685 57.9103 41.336 57.5449 41.1916 57.1422C41.0088 56.6161 40.9222 56.0615 40.9358 55.5048C40.9196 54.924 41.0151 54.3455 41.2172 53.8008C41.3705 53.3842 41.6093 53.0042 41.9182 52.6853C42.1773 52.4154 42.4939 52.2073 42.8444 52.0764C43.1545 51.9555 43.4838 51.8914 43.8166 51.8871C44.2858 51.8745 44.7467 52.0126 45.1317 52.2811C45.4807 52.5108 45.7421 52.8516 45.8736 53.2482H47.0096C46.9194 52.8863 46.7439 52.5512 46.4979 52.2709C46.2581 52.016 45.9759 51.8048 45.6638 51.6466C45.3426 51.483 44.997 51.3725 44.6404 51.3191C44.3026 51.2592 43.9602 51.2284 43.6171 51.227C42.9915 51.2143 42.37 51.3292 41.7903 51.5647C41.2892 51.7742 40.8364 52.0842 40.4599 52.4755C40.0949 52.8622 39.8174 53.323 39.6463 53.8264C39.276 54.9179 39.285 56.1025 39.6719 57.1882C39.8528 57.7028 40.1392 58.1739 40.5129 58.5713C40.8865 58.9687 41.339 59.2837 41.8415 59.4959C42.3934 59.7284 42.9876 59.8434 43.5864 59.8337C44.2376 59.8468 44.8844 59.7231 45.4847 59.4704C45.9731 59.2609 46.435 58.9947 46.8612 58.6773L46.3802 58.053C46.0393 58.3455 45.6541 58.5822 45.2391 58.754C44.8422 58.9049 44.4203 58.9795 43.9957 58.974Z" fill="#EBE7DE"/>
<path fill-rule="evenodd" clip-rule="evenodd" d="M52.1578 51.2219C52.7963 51.1898 53.4337 51.3054 54.0203 51.5596C54.4229 51.7485 54.7584 52.0554 54.9823 52.4397C55.1932 52.8237 55.314 53.2506 55.3354 53.6882C55.3712 54.159 55.3865 54.6451 55.3865 55.1363V59.6289H54.0561V58.8205C53.7053 59.1461 53.2906 59.3953 52.8383 59.5522C52.364 59.731 51.8613 59.8229 51.3544 59.8234C50.9255 59.8316 50.4997 59.7479 50.1059 59.5778C49.7637 59.4282 49.4556 59.2106 49.2002 58.9381C48.9634 58.6793 48.7792 58.3769 48.6578 58.0478C48.5353 57.7207 48.4746 57.3737 48.4787 57.0244C48.4787 56.6641 48.5446 56.3069 48.6732 55.9703C48.8064 55.6186 49.0081 55.2968 49.2667 55.0237C49.5434 54.7358 49.8737 54.5046 50.2389 54.3432C50.6534 54.1626 51.102 54.0736 51.554 54.0822C52.0378 54.0788 52.5171 54.1764 52.9611 54.3688C53.388 54.5449 53.7643 54.8245 54.0561 55.1823V54.4762C54.101 53.7814 53.9597 53.0872 53.6468 52.4653C53.481 52.2343 53.2564 52.0518 52.9965 51.9367C52.7365 51.8215 52.4505 51.7779 52.168 51.8103C51.8943 51.8049 51.6214 51.8429 51.3595 51.9229C51.137 51.996 50.9279 52.1049 50.7404 52.2452C50.5472 52.3916 50.3751 52.5638 50.2287 52.7569C50.0634 52.9756 49.9097 53.2027 49.7682 53.4375L48.9239 52.583C49.0774 52.4192 49.236 52.2555 49.4049 52.0713C49.591 51.8919 49.8032 51.7418 50.0343 51.6261C50.3127 51.4816 50.6085 51.3732 50.9144 51.3037C51.3193 51.2153 51.7331 51.1741 52.1475 51.1809M54.0459 56.3285C53.9896 56.2006 53.9078 56.0471 53.8054 55.868C53.693 55.6809 53.5572 55.5089 53.4012 55.3563C53.2273 55.183 53.0248 55.041 52.8025 54.9367C52.5458 54.8137 52.2632 54.754 51.9787 54.7627C51.6764 54.7586 51.3772 54.8234 51.1037 54.9521C50.8481 55.0758 50.6201 55.2498 50.4334 55.4638C50.2497 55.6741 50.1074 55.9171 50.0138 56.1801C49.916 56.4545 49.8659 56.7434 49.8654 57.0347C49.857 57.3505 49.9218 57.664 50.0547 57.9506C50.1738 58.1977 50.3387 58.42 50.5408 58.6056C50.7314 58.7834 50.9559 58.9209 51.2009 59.0098C51.4236 59.0935 51.6589 59.1384 51.8968 59.1428C52.1135 59.1405 52.3282 59.1007 52.5313 59.0251C52.7488 58.9462 52.9551 58.8396 53.1453 58.7079C53.335 58.5673 53.5069 58.404 53.657 58.2218C53.8114 58.0368 53.9405 57.832 54.0408 57.6129L54.0459 56.3285Z" fill="#EBE7DE"/>
<path d="M59.1215 48.1108H57.7246V59.629H59.1215V48.1108Z" fill="#EBE7DE"/>
<path fill-rule="evenodd" clip-rule="evenodd" d="M23.6324 55.9043V55.5564C23.6447 54.9065 23.539 54.2598 23.3202 53.6478C23.135 53.1489 22.8454 52.6954 22.4708 52.3174C22.1196 51.9662 21.6949 51.6971 21.2274 51.5294C20.7499 51.3498 20.2434 51.2596 19.7333 51.2633C19.2079 51.2594 18.6868 51.3567 18.1982 51.5498C17.7314 51.7401 17.3096 52.026 16.9599 52.389C16.5998 52.7745 16.3213 53.2287 16.1412 53.7245C15.935 54.2898 15.8344 54.8882 15.8444 55.4899C15.842 56.0358 15.9284 56.5784 16.1003 57.0966C16.2629 57.6087 16.5255 58.0835 16.8729 58.4935C17.2309 58.9179 17.6805 59.2556 18.188 59.4811C18.7811 59.7407 19.4237 59.8682 20.071 59.8546C20.7374 59.8597 21.3983 59.7328 22.0154 59.4811C22.5951 59.2383 23.1178 58.8776 23.5505 58.4219L23.0388 57.9102C22.8085 58.1046 22.5936 58.2888 22.389 58.4526C22.1994 58.6105 21.9936 58.7477 21.7749 58.8619C21.5692 58.9725 21.351 59.0584 21.1251 59.1178C20.883 59.1817 20.6335 59.2127 20.3831 59.2099C20.0527 59.2067 19.7241 59.1603 19.4058 59.0717C19.0521 58.9722 18.724 58.7977 18.4438 58.56C18.1219 58.2809 17.8696 57.9305 17.707 57.5366C17.4925 57.0164 17.3913 56.4565 17.4102 55.8941L23.6324 55.9043ZM17.3949 55.2443C17.393 54.8154 17.4411 54.3879 17.5381 53.9701C17.6163 53.5836 17.76 53.2133 17.9628 52.8751C18.1415 52.5672 18.3905 52.306 18.6894 52.1127C18.9943 51.9166 19.3504 51.8152 19.7128 51.821C20.0669 51.8079 20.4185 51.8851 20.7344 52.0453C21.0504 52.2055 21.3205 52.4436 21.5191 52.737C21.9878 53.4861 22.213 54.362 22.1638 55.2443H17.3949Z" fill="#EBE7DE"/>
<path fill-rule="evenodd" clip-rule="evenodd" d="M35.6554 59.6292H37.0575V51.4012H35.6554V59.6292ZM35.461 48.8018C35.4597 48.9181 35.4822 49.0335 35.5271 49.1408C35.5719 49.2482 35.6383 49.3452 35.722 49.4261C35.8015 49.5182 35.8992 49.593 36.0089 49.6457C36.1186 49.6984 36.238 49.7279 36.3596 49.7323C36.4813 49.7368 36.6025 49.7161 36.7158 49.6716C36.8291 49.6271 36.932 49.5597 37.0181 49.4736C37.1041 49.3876 37.1715 49.2847 37.216 49.1714C37.2605 49.0581 37.2812 48.9369 37.2768 48.8152C37.2723 48.6936 37.2428 48.5742 37.1901 48.4644C37.1374 48.3547 37.0626 48.257 36.9705 48.1775C36.8467 48.0544 36.6893 47.9706 36.518 47.9367C36.3467 47.9029 36.1692 47.9204 36.0079 47.9871C35.8466 48.0538 35.7086 48.1668 35.6112 48.3117C35.5139 48.4567 35.4617 48.6272 35.461 48.8018Z" fill="#EBE7DE"/>
<path fill-rule="evenodd" clip-rule="evenodd" d="M10.0262 34.0701H5.22656C5.95828 34.0701 6.56208 33.2412 6.76164 32.929C11.6176 22.9357 16.4838 13.142 20.869 3.01048C20.9252 2.87744 20.9866 2.74951 21.0378 2.61136C21.5034 1.43959 20.6029 0.774387 18.8938 0.564594C18.6789 0.539009 22.7469 0.564594 22.7469 0.564594L29.3221 14.2933L27.6847 17.7574C25.8682 13.3057 23.7805 9.61129 21.7746 5.06235C19.3799 10.3277 16.494 16.3196 13.9458 22.1477H25.5868L24.9011 23.5856L13.4597 23.5293C12.1651 26.5483 10.3895 29.9356 9.03866 32.9546C8.75211 33.6096 9.3866 34.0701 10.0262 34.0701Z" fill="#EBE7DE"/>
<path fill-rule="evenodd" clip-rule="evenodd" d="M38.2653 12.7275C41.4173 19.1851 48.2484 33.0673 51.3441 40.1593C51.9633 41.5767 53.1658 43.1834 54.8799 43.1834H45.7821C45.3574 43.1834 46.5905 43.122 46.9334 43.0043C47.1878 42.9397 47.4246 42.8192 47.6266 42.6515C47.8286 42.4838 47.9906 42.2731 48.1009 42.0349C48.2112 41.7967 48.267 41.5369 48.2642 41.2744C48.2614 41.0119 48.2 40.7533 48.0847 40.5175C47.0613 37.7595 45.1117 34.7303 44.16 32.2537L29.7303 32.182L23.9277 43.1834L29.106 32.1718L29.7457 30.7902H43.5613L36.6381 16.1201L38.2653 12.7275Z" fill="#EBE7DE"/>
<path fill-rule="evenodd" clip-rule="evenodd" d="M34.5211 28.4519C33.9248 28.0896 33.3475 27.6968 32.7916 27.275C32.0496 28.4468 30.2331 28.8101 29.1023 28.6003C27.7873 28.3445 26.9941 27.2955 27.5314 26.0418C27.9813 25.2019 28.5481 24.4301 29.2149 23.7495C28.4218 22.6698 27.7668 21.4366 28.0892 20.5412C28.4678 19.4717 29.3274 18.5763 30.8983 18.9652C32.3311 19.3285 32.6534 20.7765 31.9217 21.933C31.4432 22.5696 30.9163 23.1683 30.3457 23.7239C31.1017 24.5718 31.938 25.3447 32.8428 26.0316L34.5109 23.9388L33.3033 26.3898C33.5387 26.6047 34.4802 27.3057 34.4802 27.3262L34.5211 28.4519ZM32.3311 26.9168C31.3591 26.1669 30.4643 25.3218 29.6601 24.3942C28.8925 25.1976 28.4064 25.7348 28.2273 26.2568C27.8845 27.2494 28.519 27.8225 29.3172 27.9965C29.8703 28.1066 30.4428 28.0643 30.9737 27.8741C31.5045 27.6839 31.9737 27.353 32.3311 26.9168ZM29.875 23.1815C30.1871 22.8335 30.6476 22.5009 30.9751 22.066C31.2954 21.6799 31.512 21.2185 31.6045 20.7254C31.8706 18.6786 26.6411 18.8679 29.875 23.1815Z" fill="#EBE7DE"/>
</svg>
