<svg width="20" height="20" viewBox="0 0 20 20" fill="none" xmlns="http://www.w3.org/2000/svg">
<path d="M3.03944 13.674C3.18788 13.9568 3.4508 14.1312 3.7401 14.1412C3.75614 14.1423 3.77078 14.143 3.78631 14.143C3.94459 14.143 4.18838 14.0678 6.82013 13.2223C7.73164 12.9313 7.97781 12.8527 8.05111 12.8282C8.43144 12.731 8.694 12.3841 8.72004 11.9438C8.74416 11.4949 8.50228 11.0966 8.12266 10.9545C7.53784 10.7163 7.33183 10.6321 7.24924 10.6028L7.25045 10.6001C4.11476 9.30631 4.09958 9.30599 3.91906 9.30393C3.62648 9.29046 3.35942 9.44253 3.18495 9.71735C2.85548 10.247 2.72894 11.8 2.83601 12.8361C2.87843 13.2161 2.94686 13.4978 3.03944 13.674Z" fill="white"/>
<path d="M9.62874 13.6317C9.20997 13.47 8.75775 13.5765 8.50553 13.8924C8.50553 13.8924 8.09519 14.3796 7.94866 14.5527L7.89589 14.6147C5.70118 17.1905 5.69341 17.2129 5.63428 17.3839C5.5922 17.4981 5.57756 17.6153 5.59048 17.7291C5.60602 17.8943 5.67823 18.0587 5.80012 18.2056C6.28665 18.7835 8.39308 19.5852 9.3289 19.5852C9.39974 19.5852 9.46407 19.5807 9.52027 19.5711C9.84232 19.5124 10.077 19.328 10.1826 19.0459C10.2409 18.8756 10.2456 18.8618 10.2542 15.8337C10.2542 15.8337 10.2609 14.5786 10.2614 14.5407C10.2865 14.1462 10.038 13.7893 9.62874 13.6317Z" fill="white"/>
<path d="M9.82844 1.36538L9.82481 1.34883C9.74393 1.05402 9.51205 0.838527 9.18828 0.757809C8.32541 0.54333 5.17211 1.43017 4.56334 2.05842C4.34199 2.28875 4.25214 2.5884 4.33523 2.89319C4.42661 3.08113 7.85866 8.48187 8.24847 9.09529C8.595 9.65665 8.96826 9.93904 9.36084 9.93904C9.44823 9.93904 9.53652 9.92526 9.62567 9.89696C10.1158 9.7463 10.3448 9.26457 10.306 8.46567C10.2517 7.21783 9.87672 1.64398 9.82844 1.36538Z" fill="white"/>
<path d="M11.9809 11.4745C11.7405 11.4145 11.5173 11.2559 11.3638 11.0207C11.1245 10.6539 11.1321 10.2204 11.3831 9.91597C11.4171 9.87217 12.1501 8.87362 12.1501 8.87362C13.91 6.4665 13.9464 6.41857 14.0971 6.32033C14.344 6.15378 14.6443 6.14035 14.9402 6.28379C15.6569 6.63309 17.0596 8.70298 17.1476 9.54087L17.1492 9.55465L17.1487 9.58705C17.168 9.90254 17.0448 10.1736 16.801 10.3394C16.6501 10.4374 16.6192 10.4573 13.3408 11.2514C13.3408 11.2514 12.4176 11.5356 11.9809 11.4745Z" fill="white"/>
<path d="M16.9562 14.2271C16.8153 14.1219 16.8038 14.1133 13.921 13.1658C13.4565 13.0127 12.7473 12.7782 12.695 12.7582C12.3274 12.6172 11.912 12.7437 11.637 13.0823C11.353 13.4285 11.3154 13.894 11.5404 14.2368L12.0307 15.0347C13.7462 17.8211 13.8198 17.9269 13.9658 18.041C14.1073 18.1521 14.2718 18.2079 14.4471 18.2079C14.5609 18.2079 14.6792 18.1845 14.7989 18.1366C15.5519 17.8359 17.1322 15.8281 17.2496 15.0216C17.2936 14.7009 17.1883 14.4126 16.9562 14.2271Z" fill="white"/>
</svg>
